<svg xmlns="http://www.w3.org/2000/svg" xmlns:xlink="http://www.w3.org/1999/xlink" version="1.1" width="256" height="256" viewBox="0 0 256 256" xml:space="preserve">

<defs>
</defs>
<g style="stroke: none; stroke-width: 0; stroke-dasharray: none; stroke-linecap: butt; stroke-linejoin: miter; stroke-miterlimit: 10; fill: none; fill-rule: nonzero; opacity: 1;" transform="translate(1.4065934065934016 1.4065934065934016) scale(2.81 2.81)" >
	<circle cx="45" cy="45" r="45" style="stroke: none; stroke-width: 1; stroke-dasharray: none; stroke-linecap: butt; stroke-linejoin: miter; stroke-miterlimit: 10; fill: rgb(32,196,203); fill-rule: nonzero; opacity: 1;" transform="  matrix(1 0 0 1 0 0) "/>
	<path d="M 24.647 74.35 c -3.669 0 -7.283 -1.729 -9.543 -4.955 c -1.782 -2.545 -2.466 -5.631 -1.927 -8.69 c 0.54 -3.059 2.238 -5.725 4.783 -7.507 c 5.252 -3.676 12.518 -2.396 16.196 2.856 c 0 0 0 0 0 0 c 3.678 5.253 2.396 12.519 -2.856 16.196 C 29.275 73.669 26.95 74.35 24.647 74.35 z M 24.622 57.097 c -1.115 0 -2.24 0.33 -3.22 1.016 c -1.232 0.863 -2.054 2.153 -2.315 3.634 c -0.261 1.481 0.07 2.975 0.933 4.207 c 1.78 2.542 5.297 3.162 7.84 1.382 c 2.542 -1.779 3.163 -5.297 1.383 -7.84 l 0 0 C 28.147 57.934 26.398 57.097 24.622 57.097 z" style="stroke: none; stroke-width: 1; stroke-dasharray: none; stroke-linecap: butt; stroke-linejoin: miter; stroke-miterlimit: 10; fill: rgb(27,167,173); fill-rule: nonzero; opacity: 1;" transform=" matrix(1 0 0 1 0 0) " stroke-linecap="round" />
	<path d="M 54.83 45.707 l 14.607 -10.228 c -2.097 -2.994 -6.262 -3.729 -9.256 -1.632 L 30.268 54.792 l 3.812 5.444 L 54.83 45.707 z" style="stroke: none; stroke-width: 1; stroke-dasharray: none; stroke-linecap: butt; stroke-linejoin: miter; stroke-miterlimit: 10; fill: rgb(27,167,173); fill-rule: nonzero; opacity: 1;" transform=" matrix(1 0 0 1 0 0) " stroke-linecap="round" />
	<path d="M 34.081 60.735 c -0.158 0 -0.313 -0.074 -0.41 -0.213 l -3.812 -5.443 c -0.158 -0.227 -0.104 -0.538 0.123 -0.696 l 29.913 -20.946 c 3.229 -2.259 7.691 -1.473 9.952 1.755 c 0.076 0.108 0.106 0.243 0.083 0.374 c -0.022 0.13 -0.097 0.247 -0.205 0.323 L 55.117 46.116 l 0 0 l -20.75 14.528 C 34.28 60.706 34.18 60.735 34.081 60.735 z M 30.965 54.915 l 3.238 4.624 l 20.34 -14.242 l 0.287 0.41 l -0.287 -0.41 l 14.182 -9.93 c -2.02 -2.438 -5.617 -2.959 -8.256 -1.111 L 30.965 54.915 z" style="stroke: none; stroke-width: 1; stroke-dasharray: none; stroke-linecap: butt; stroke-linejoin: miter; stroke-miterlimit: 10; fill: rgb(27,167,173); fill-rule: nonzero; opacity: 1;" transform=" matrix(1 0 0 1 0 0) " stroke-linecap="round" />
	<path d="M 24.613 45.464 c -2.303 0 -4.627 -0.681 -6.653 -2.099 c -2.545 -1.782 -4.243 -4.448 -4.783 -7.507 c -0.539 -3.059 0.145 -6.145 1.927 -8.689 s 4.447 -4.243 7.506 -4.783 c 3.062 -0.539 6.146 0.146 8.69 1.927 c 2.544 1.782 4.243 4.448 4.782 7.507 s -0.145 6.145 -1.926 8.689 l 0 0 C 31.896 43.735 28.282 45.464 24.613 45.464 z M 24.642 28.208 c -0.328 0 -0.659 0.029 -0.989 0.087 c -1.48 0.261 -2.771 1.083 -3.633 2.315 c -0.863 1.232 -1.194 2.726 -0.933 4.206 c 0.261 1.481 1.083 2.771 2.315 3.634 c 2.542 1.78 6.059 1.16 7.84 -1.382 c 1.78 -2.542 1.16 -6.06 -1.382 -7.84 C 26.902 28.557 25.786 28.208 24.642 28.208 z M 31.699 38.788 h 0.01 H 31.699 z" style="stroke: none; stroke-width: 1; stroke-dasharray: none; stroke-linecap: butt; stroke-linejoin: miter; stroke-miterlimit: 10; fill: rgb(27,167,173); fill-rule: nonzero; opacity: 1;" transform=" matrix(1 0 0 1 0 0) " stroke-linecap="round" />
	<path d="M 54.83 50.856 l 14.607 10.228 c -2.097 2.994 -6.262 3.729 -9.256 1.632 L 30.268 41.771 l 3.812 -5.444 L 54.83 50.856 z" style="stroke: none; stroke-width: 1; stroke-dasharray: none; stroke-linecap: butt; stroke-linejoin: miter; stroke-miterlimit: 10; fill: rgb(27,167,173); fill-rule: nonzero; opacity: 1;" transform=" matrix(1 0 0 1 0 0) " stroke-linecap="round" />
	<path d="M 63.983 64.415 c -1.415 0 -2.844 -0.418 -4.089 -1.29 L 29.982 42.18 c -0.227 -0.159 -0.281 -0.47 -0.123 -0.696 l 3.812 -5.444 c 0.076 -0.109 0.192 -0.183 0.323 -0.206 c 0.132 -0.023 0.265 0.007 0.374 0.083 l 35.358 24.758 c 0.108 0.075 0.183 0.191 0.205 0.322 c 0.023 0.131 -0.007 0.265 -0.083 0.374 C 68.459 63.354 66.238 64.415 63.983 64.415 z M 30.965 41.648 l 29.504 20.659 c 1.338 0.937 2.967 1.296 4.591 1.01 c 1.455 -0.257 2.739 -1.003 3.665 -2.121 l -14.182 -9.93 l 0 0 l -20.34 -14.243 L 30.965 41.648 z" style="stroke: none; stroke-width: 1; stroke-dasharray: none; stroke-linecap: butt; stroke-linejoin: miter; stroke-miterlimit: 10; fill: rgb(27,167,173); fill-rule: nonzero; opacity: 1;" transform=" matrix(1 0 0 1 0 0) " stroke-linecap="round" />
	<path d="M 28.209 70.787 c -3.669 0 -7.283 -1.729 -9.543 -4.955 c -1.782 -2.545 -2.466 -5.631 -1.927 -8.69 c 0.54 -3.059 2.238 -5.725 4.783 -7.507 c 5.252 -3.676 12.518 -2.396 16.196 2.856 c 0 0 0 0 0 0 c 3.678 5.253 2.396 12.519 -2.856 16.196 C 32.837 70.106 30.512 70.787 28.209 70.787 z M 28.184 53.534 c -1.115 0 -2.24 0.33 -3.22 1.016 c -1.232 0.863 -2.054 2.153 -2.315 3.634 c -0.261 1.481 0.07 2.975 0.933 4.207 c 1.781 2.543 5.298 3.161 7.84 1.382 c 2.542 -1.779 3.163 -5.297 1.383 -7.84 l 0 0 C 31.71 54.371 29.96 53.534 28.184 53.534 z" style="stroke: none; stroke-width: 1; stroke-dasharray: none; stroke-linecap: butt; stroke-linejoin: miter; stroke-miterlimit: 10; fill: rgb(255,255,255); fill-rule: nonzero; opacity: 1;" transform=" matrix(1 0 0 1 0 0) " stroke-linecap="round" />
	<path d="M 58.393 42.144 L 73 31.916 c -2.097 -2.994 -6.262 -3.729 -9.256 -1.632 L 33.831 51.229 l 3.812 5.444 L 58.393 42.144 z" style="stroke: none; stroke-width: 1; stroke-dasharray: none; stroke-linecap: butt; stroke-linejoin: miter; stroke-miterlimit: 10; fill: rgb(255,255,255); fill-rule: nonzero; opacity: 1;" transform=" matrix(1 0 0 1 0 0) " stroke-linecap="round" />
	<path d="M 37.643 57.173 c -0.158 0 -0.313 -0.074 -0.41 -0.213 l -3.812 -5.443 c -0.158 -0.227 -0.104 -0.538 0.123 -0.696 l 29.913 -20.946 c 3.229 -2.259 7.692 -1.473 9.952 1.755 c 0.076 0.108 0.106 0.243 0.083 0.374 c -0.022 0.13 -0.097 0.247 -0.205 0.323 L 58.68 42.554 l 0 0 l -20.75 14.528 C 37.842 57.144 37.742 57.173 37.643 57.173 z M 34.527 51.353 l 3.238 4.624 l 20.34 -14.242 l 0.287 0.41 l -0.287 -0.41 l 14.182 -9.93 c -2.02 -2.438 -5.617 -2.959 -8.256 -1.111 L 34.527 51.353 z" style="stroke: none; stroke-width: 1; stroke-dasharray: none; stroke-linecap: butt; stroke-linejoin: miter; stroke-miterlimit: 10; fill: rgb(255,255,255); fill-rule: nonzero; opacity: 1;" transform=" matrix(1 0 0 1 0 0) " stroke-linecap="round" />
	<path d="M 28.176 41.901 c -2.303 0 -4.627 -0.681 -6.653 -2.099 c -2.545 -1.782 -4.243 -4.448 -4.783 -7.507 c -0.539 -3.059 0.145 -6.145 1.927 -8.689 s 4.447 -4.243 7.506 -4.783 c 3.062 -0.538 6.146 0.146 8.69 1.927 c 2.544 1.782 4.243 4.448 4.782 7.507 s -0.145 6.145 -1.926 8.689 l 0 0 C 35.459 40.173 31.845 41.901 28.176 41.901 z M 28.204 24.645 c -0.328 0 -0.659 0.029 -0.989 0.087 c -1.48 0.261 -2.771 1.083 -3.633 2.315 c -0.863 1.232 -1.194 2.726 -0.933 4.206 c 0.261 1.481 1.083 2.771 2.315 3.634 c 2.542 1.779 6.059 1.16 7.84 -1.382 c 1.78 -2.542 1.16 -6.06 -1.382 -7.84 C 30.464 24.995 29.349 24.645 28.204 24.645 z M 35.261 35.226 h 0.01 H 35.261 z" style="stroke: none; stroke-width: 1; stroke-dasharray: none; stroke-linecap: butt; stroke-linejoin: miter; stroke-miterlimit: 10; fill: rgb(255,255,255); fill-rule: nonzero; opacity: 1;" transform=" matrix(1 0 0 1 0 0) " stroke-linecap="round" />
	<path d="M 58.393 47.293 L 73 57.522 c -2.097 2.994 -6.262 3.729 -9.256 1.632 L 33.831 38.208 l 3.812 -5.444 L 58.393 47.293 z" style="stroke: none; stroke-width: 1; stroke-dasharray: none; stroke-linecap: butt; stroke-linejoin: miter; stroke-miterlimit: 10; fill: rgb(255,255,255); fill-rule: nonzero; opacity: 1;" transform=" matrix(1 0 0 1 0 0) " stroke-linecap="round" />
	<path d="M 67.546 60.853 c -1.415 0 -2.844 -0.418 -4.089 -1.29 L 33.544 38.618 c -0.227 -0.159 -0.281 -0.47 -0.123 -0.696 l 3.812 -5.444 c 0.076 -0.109 0.192 -0.183 0.323 -0.206 c 0.132 -0.023 0.265 0.007 0.374 0.083 l 35.358 24.758 c 0.108 0.075 0.183 0.191 0.205 0.322 c 0.023 0.131 -0.007 0.265 -0.083 0.374 C 72.021 59.791 69.801 60.853 67.546 60.853 z M 34.527 38.085 l 29.504 20.659 c 1.338 0.937 2.967 1.296 4.591 1.01 c 1.455 -0.257 2.739 -1.003 3.665 -2.121 l -14.182 -9.93 l 0 0 L 37.765 33.46 L 34.527 38.085 z" style="stroke: none; stroke-width: 1; stroke-dasharray: none; stroke-linecap: butt; stroke-linejoin: miter; stroke-miterlimit: 10; fill: rgb(255,255,255); fill-rule: nonzero; opacity: 1;" transform=" matrix(1 0 0 1 0 0) " stroke-linecap="round" />
</g>
</svg>